<svg 
 xmlns="http://www.w3.org/2000/svg"
 xmlns:xlink="http://www.w3.org/1999/xlink"
 width="422px" height="635px">
<path fill-rule="evenodd"  fill="rgb(137, 198, 166)"
 d="M365.742,635.000 L293.000,635.000 L293.000,579.000 L132.000,579.000 L132.000,635.000 L131.830,635.000 L56.277,635.000 C21.817,634.994 0.012,613.290 0.006,578.962 L0.006,56.039 C0.012,21.710 21.817,0.006 56.277,-0.000 L131.837,-0.000 L274.449,-0.000 L365.742,-0.000 C400.201,0.006 422.007,21.710 422.013,56.039 L422.013,578.967 C422.007,613.296 400.201,635.000 365.742,635.000 ZM212.500,377.000 C243.704,377.000 269.000,351.704 269.000,320.500 C269.000,289.296 243.704,264.000 212.500,264.000 C181.296,264.000 156.000,289.296 156.000,320.500 C156.000,351.704 181.296,377.000 212.500,377.000 ZM292.000,1.000 L127.000,1.000 L127.000,63.000 L292.000,63.000 L292.000,1.000 Z"/>
</svg>