<svg 
 xmlns="http://www.w3.org/2000/svg"
 xmlns:xlink="http://www.w3.org/1999/xlink"
 width="440px" height="649px">
<path fill-rule="evenodd"  fill="rgb(217, 217, 217)"
 d="M439.578,581.812 L439.578,66.665 C439.572,29.845 409.635,0.007 372.695,0.000 L294.253,0.000 L141.372,0.000 L66.932,0.000 C29.992,0.007 0.056,29.845 0.049,66.665 L0.049,581.806 L9.607,581.806 L0.049,581.806 C0.056,618.625 29.992,648.464 66.932,648.470 L141.365,648.470 L141.365,648.470 L294.253,648.470 L294.253,648.470 L372.695,648.470 C409.635,648.470 439.572,618.632 439.578,581.812 ZM172.072,323.921 L172.138,323.265 L172.072,322.589 C172.250,309.671 177.516,298.065 186.033,289.562 C194.708,280.928 206.590,275.620 219.814,275.613 C233.038,275.620 244.919,280.928 253.594,289.562 C262.256,298.209 267.582,310.051 267.588,323.232 C267.582,336.413 262.256,348.255 253.594,356.902 C244.919,365.536 233.038,370.844 219.814,370.851 C206.590,370.844 194.708,365.536 186.033,356.902 C177.522,348.412 172.263,336.826 172.072,323.921 ZM142.923,63.237 L142.923,11.046 L292.696,11.046 L292.696,63.237 L142.923,63.237 ZM29.000,28.000 C37.676,19.366 53.708,11.053 66.932,11.046 L131.814,11.046 L131.814,64.764 C131.814,67.270 132.835,69.724 134.612,71.495 C136.389,73.267 138.851,74.284 141.365,74.284 L294.253,74.284 C296.768,74.284 299.230,73.267 301.007,71.495 C302.784,69.724 303.804,67.270 303.804,64.764 L303.804,11.046 L372.695,11.046 C385.919,11.053 402.325,20.366 411.000,29.000 C419.662,37.647 428.463,53.484 428.470,66.665 L428.470,319.320 C426.962,318.329 425.159,317.745 423.217,317.745 L277.940,317.745 C273.306,285.433 250.052,266.250 219.814,264.574 C186.286,267.130 166.322,285.433 161.688,317.745 L16.232,317.745 C14.363,317.745 12.632,318.303 11.164,319.221 L11.164,66.665 C11.164,53.484 20.338,36.647 29.000,28.000 ZM25.000,619.000 C16.338,610.353 11.164,594.993 11.158,581.812 L11.158,327.315 C12.632,328.240 14.357,328.791 16.226,328.791 L161.694,328.791 C166.354,361.071 187.043,378.737 219.814,381.903 C252.808,379.132 273.267,361.071 277.933,328.791 L423.217,328.791 C425.159,328.791 426.962,328.207 428.470,327.216 L428.470,581.812 C428.463,594.993 422.662,610.353 414.000,619.000 C405.324,627.634 385.919,637.424 372.695,637.431 L303.804,637.431 L303.804,583.713 C303.804,581.207 302.784,578.753 301.007,576.982 C299.230,575.210 296.768,574.193 294.253,574.193 L141.372,574.193 C138.858,574.193 136.396,575.210 134.618,576.982 C132.841,578.753 131.821,581.207 131.821,583.713 L131.821,637.431 L66.939,637.431 C53.708,637.424 33.676,627.634 25.000,619.000 ZM142.923,637.431 L142.923,585.240 L292.696,585.240 L292.696,637.431 L142.923,637.431 Z"/>
</svg>