<svg 
 xmlns="http://www.w3.org/2000/svg"
 xmlns:xlink="http://www.w3.org/1999/xlink"
 width="54px" height="50px">
<path fill-rule="evenodd"  fill="rgb(53, 8, 58)"
 d="M53.977,8.642 L51.100,19.800 C51.007,20.161 51.378,21.177 51.000,21.156 L43.500,21.156 L43.500,49.656 C43.500,50.085 43.304,49.656 42.867,49.656 L11.133,49.656 C10.696,49.656 10.342,49.309 10.342,48.880 L10.500,21.156 L4.500,21.156 C4.122,21.177 2.993,20.161 2.900,19.800 L0.022,8.642 C-0.073,8.272 0.121,7.888 0.478,7.738 L18.325,0.236 C18.371,0.214 18.420,0.197 18.469,0.184 C18.479,0.182 18.489,0.179 18.498,0.177 C18.507,0.175 18.517,0.174 18.526,0.172 C18.564,0.164 18.603,0.159 18.642,0.157 C18.671,0.156 18.701,0.157 18.731,0.159 L35.304,0.159 C35.306,0.159 35.307,0.159 35.309,0.159 C35.320,0.158 35.330,0.158 35.341,0.158 C35.447,0.160 35.551,0.183 35.648,0.225 L53.522,7.738 C53.880,7.888 54.073,8.272 53.977,8.642 ZM19.500,3.156 C19.548,7.223 22.829,9.045 26.986,9.045 C31.141,9.045 34.453,7.223 34.500,3.156 L19.500,3.156 Z"/>
</svg>