<svg 
 xmlns="http://www.w3.org/2000/svg"
 xmlns:xlink="http://www.w3.org/1999/xlink"
 width="54px" height="50px">
<path fill-rule="evenodd"  fill="rgb(53, 8, 58)"
 d="M18.642,0.157 C18.603,0.159 18.564,0.164 18.526,0.172 C18.517,0.174 18.508,0.175 18.498,0.177 C18.489,0.179 18.479,0.182 18.470,0.184 C18.420,0.197 18.372,0.214 18.325,0.236 L0.478,7.738 C0.120,7.888 -0.073,8.272 0.023,8.642 L2.900,19.800 C2.993,20.161 4.122,21.177 4.500,21.156 L11.000,21.000 L11.000,49.000 C11.000,49.429 10.696,49.656 11.133,49.656 L42.867,49.656 C43.304,49.656 43.000,49.429 43.000,49.000 L43.000,21.000 L51.000,21.000 C51.378,21.021 51.007,20.161 51.100,19.800 L53.977,8.642 C54.073,8.272 53.880,7.888 53.522,7.738 L35.648,0.225 C35.551,0.183 35.447,0.160 35.341,0.158 C35.330,0.158 35.320,0.158 35.309,0.159 C35.307,0.159 35.306,0.159 35.304,0.159 L18.731,0.159 C18.701,0.157 18.671,0.156 18.642,0.157 L18.642,0.157 ZM20.000,2.000 L35.000,2.000 C34.953,6.067 31.141,9.045 26.986,9.045 C22.830,9.045 20.048,6.067 20.000,2.000 ZM37.000,3.000 L52.000,9.000 L49.000,19.000 L42.000,19.000 L41.000,19.000 L41.000,47.000 L13.000,47.000 L13.000,20.000 C13.000,19.571 11.459,19.631 11.000,19.000 C10.985,19.000 12.015,18.999 12.000,19.000 L5.000,19.000 L3.000,9.000 L18.000,3.000 C18.264,7.716 22.130,11.000 27.000,11.000 C31.874,11.000 36.742,7.721 37.000,3.000 Z"/>
</svg>