<svg xmlns="http://www.w3.org/2000/svg" width="1259" height="1490">
    <path fill="#EEE" fill-opacity=".471" fill-rule="evenodd" d="M1255.209 574.832c-36.154 317.379-323.146 574.744-641.01 574.744-122.962 0-232.237-38.857-318.269-104.473l-49.301 432.392c-63.214 8.197-127.031 12.498-191.55 12.498-18.493 0-36.804-.383-55.08-1.126l73.9-648.057c43.148 27.469 95.365 43.291 153.1 43.291 76.936 0 150.447-28.061 209.878-74.41 50.936 52.208 123.177 84.107 206.525 84.107 176.446 0 335.666-142.779 355.749-318.966 20.137-176.181-106.567-319.058-283.016-319.058-83.342 0-162.848 31.92-225.685 84.15-48.866-46.372-115.99-74.452-192.929-74.452-25.19 0-50.004 3.079-74.097 8.749C343.441 109.716 537.792.002 745.287.002c317.872 0 546.127 257.36 509.922 574.83zm-810.296-.019c-11.487 100.768-102.551 182.43-203.468 182.43-100.896 0-173.414-81.662-161.923-182.43 11.514-100.766 102.631-182.484 203.522-182.484 100.918 0 173.387 81.718 161.869 182.484z"/>
</svg>
