<svg xmlns="http://www.w3.org/2000/svg" xmlns:xlink="http://www.w3.org/1999/xlink" width="180" height="30" viewBox="0 0 180 30">
    <defs>
        <path id="a" d="M.61.232h9.501v17.182h-9.5z"/>
        <path id="c" d="M.04.744h7.685v22.725H.04z"/>
        <path id="e" d="M0 .121h19.31V23H0z"/>
    </defs>
    <g fill="none" fill-rule="evenodd">
        <path fill="#FFF" d="M134.768 14.107c0-.201-.002-.398-.017-.595a2.523 2.523 0 0 0-.017-.136c-.112-1.291-.5-2.501-1.192-3.58 0-.002-.004-.006-.004-.01a7.974 7.974 0 0 0-.39-.557c-.085-.112-.178-.214-.27-.323-.063-.074-.118-.153-.186-.224l-.004.007c-1.287-1.394-3.146-2.318-5.51-2.318-5.084 0-9.166 4.282-9.7 8.949-.547 4.813 2.81 8.739 7.716 8.739 1.852 0 3.603-.646 5.078-1.631l-.147 1.244h3.57l.992-8.097c.054-.421.078-.836.081-1.247.004-.075 0-.146 0-.221m-3.806 1.08c-.35 3.06-2.675 5.2-5.408 5.2-2.829 0-4.647-2.286-4.328-5.08.28-2.471 2.264-5.265 5.504-5.265 2.348 0 4.62 1.726 4.231 5.146M139.022 1.553l-2.51 22.118h3.957l.881-7.846h.061l4.792 7.846h4.993l-5.846-8.53 7.373-8.761h-4.548l-6.652 8.436h-.058l1.51-13.263z"/>
        <path fill="#FFF" d="M155.277 17.043c.054 1.071 1.34 3.39 4.164 3.39 1.753 0 3.147-.742 4.044-2.112h4.161c-1.289 2.974-4.756 5.738-8.62 5.738-4.905 0-8.263-3.923-7.716-8.739.534-4.667 4.617-8.95 9.701-8.95 5.235.001 8.018 4.518 7.546 8.682a9.927 9.927 0 0 1-.466 1.991h-12.814zm9.371-3.18c-.146-2.646-2.059-3.866-4.02-3.866-1.455 0-4.015.806-5.11 3.865h9.13z"/>
        <g transform="translate(169 6.256)">
            <mask id="b" fill="#fff">
                <use xlink:href="#a"/>
            </mask>
            <path fill="#FFF" d="M1.651 8.244l-1.04 9.17h3.956l1.057-9.39c.112-.984.435-3.808 4.05-3.954L10.11.232c-5.197 0-7.94 4.198-8.46 8.012" mask="url(#b)"/>
        </g>
        <path fill="#FFF" d="M111.997 14.398c.11-.952.49-4.28-2.634-4.28-1.1 0-2.237.595-2.913 1.544-.734.982-.89 2.617-1.01 3.657l-.952 8.35h-3.953l1.054-9.271c.26-2.26-.37-4.28-2.81-4.28-3.15 0-3.546 3.447-3.746 5.2l-.949 8.352h-3.953l2.013-17.236h3.623l-.279 2.019h.062c.387-.537 1.68-1.965 4.534-1.965.894 0 3.188.208 4.463 2.587 2.005-2.468 4.456-2.586 5.615-2.586 3.242 0 4.65 1.726 5.15 2.559.557.86.971 2.437.692 4.874l-1.108 9.749h-3.957l1.058-9.273M46.688 14.105c-.003-.2-.003-.398-.017-.595-.003-.044-.01-.088-.017-.136-.112-1.29-.499-2.5-1.193-3.579l-.003-.01a7.974 7.974 0 0 0-.39-.558c-.086-.112-.178-.214-.27-.323-.064-.074-.119-.153-.186-.224l-.004.007c-1.288-1.394-3.147-2.318-5.51-2.318-5.084 0-9.17 4.282-9.7 8.95-.548 4.812 2.81 8.738 7.715 8.738 1.852 0 3.603-.646 5.078-1.63l-.146 1.242 3.57.001.991-8.097c.055-.42.08-.836.082-1.247.003-.075 0-.146 0-.22m-3.807 1.08c-.35 3.06-2.675 5.2-5.408 5.2-2.828 0-4.646-2.287-4.327-5.08.28-2.472 2.264-5.266 5.504-5.266 2.348 0 4.62 1.726 4.231 5.146M66.38 17.042c.053 1.07 1.338 3.389 4.163 3.389 1.753 0 3.144-.741 4.044-2.111h4.161c-1.289 2.974-4.756 5.738-8.62 5.738-4.905 0-8.263-3.923-7.716-8.74.531-4.666 4.617-8.95 9.701-8.95 5.235 0 8.018 4.519 7.542 8.682a9.674 9.674 0 0 1-.462 1.992H66.38zm9.37-3.181c-.146-2.645-2.06-3.865-4.02-3.865-1.455 0-4.015.806-5.106 3.865h9.126zM81.432 14.499l-1.041 9.17h3.957l1.057-9.391c.112-.982.436-3.806 4.049-3.953l.438-3.837c-5.197 0-7.94 4.198-8.46 8.01M59.636 6.379L54.139 17.64 51.346 6.379h-4.517l4.581 15.628-3.838 7.047h4.252L64.123 6.379z"/>
        <g transform="translate(21 .256)">
            <mask id="d" fill="#fff">
                <use xlink:href="#c"/>
            </mask>
            <path fill="#FFF" d="M4.656 23.47c-1.86 0-3.246-.5-3.92-1.33-.71-.846-.835-2.039-.563-4.432L2.108.743h3.925L4.06 18.044c-.092.81-.058 1.251.106 1.435.26.296 1.217.33 2.019.33h1.539l-.414 3.654-2.655.006" mask="url(#d)"/>
        </g>
        <g transform="translate(0 6.256)">
            <mask id="f" fill="#fff">
                <use xlink:href="#e"/>
            </mask>
            <path fill="#FFF" d="M11.432.121c-3.182 0-6.152 1.69-7.995 4.211a5.003 5.003 0 0 1 1.129-.135c1.179 0 2.209.435 2.96 1.15.962-.804 2.179-1.3 3.457-1.3 2.709 0 4.65 2.196 4.34 4.902-.306 2.705-2.75 4.898-5.455 4.898-1.278 0-2.383-.497-3.165-1.299-.911.714-2.04 1.15-3.222 1.15a4.334 4.334 0 0 1-2.345-.67L0 22.982a22.727 22.727 0 0 0 3.783-.174l.758-6.64c1.319 1.008 2.995 1.603 4.88 1.603 4.876 0 9.277-3.949 9.832-8.823.554-4.874-2.947-8.828-7.821-8.828" mask="url(#f)"/>
        </g>
        <path fill="#D31C4C" d="M6.825 15.204c-.177 1.546-1.574 2.801-3.12 2.801-1.547 0-2.658-1.255-2.485-2.8.177-1.547 1.574-2.802 3.124-2.802 1.546 0 2.658 1.255 2.481 2.801"/>
    </g>
</svg>
