<svg xmlns="http://www.w3.org/2000/svg" width="35" height="37">
    <path fill="#D4D4D4" fill-rule="evenodd" d="M31 32H15.413A7.998 7.998 0 0 1 0 29a7.997 7.997 0 0 1 5-7.413V6a4 4 0 0 1 4-4h4V1a1 1 0 0 1 2 0v1h10V1a1 1 0 0 1 2 0v1h4a4 4 0 0 1 4 4v22a4 4 0 0 1-4 4zm-18.548 1.002a5.936 5.936 0 0 0 1.399-5.315l-1.992 1-.75 3 1.343 1.315zm.636-7.167A5.998 5.998 0 0 0 9 23.09v2.375l2.071 1.381 2.017-1.011zM8 27.2l-1.859 1.241.64 2.559h2.438l.64-2.561L8 27.2zm2.88 7.061L9.592 33H6.414L5.14 34.274a5.987 5.987 0 0 0 5.74-.013zm-8.731-6.573c-.098.43-.148.87-.149 1.312a5.975 5.975 0 0 0 1.562 4.024l1.331-1.331-.752-3.005-1.992-1zm.763-1.853l2.017 1.011L7 25.465V23.09a5.998 5.998 0 0 0-4.088 2.745zM33 6a2 2 0 0 0-2-2h-4v1a1 1 0 0 1-2 0V4H15v1a1 1 0 0 1-2 0V4H9a2 2 0 0 0-2 2v2h26V6zm0 4H7v11.069A8.047 8.047 0 0 1 8 21a8.01 8.01 0 0 1 8 8c0 .34-.028.672-.069 1H31a2 2 0 0 0 2-2V10zm-4 18h-2a2 2 0 0 1-2-2v-2a2 2 0 0 1 2-2h2a2 2 0 0 1 2 2v2a2 2 0 0 1-2 2zm0-4h-2v2h2v-2zm0-4h-2a2 2 0 0 1-2-2v-2a2 2 0 0 1 2-2h2a2 2 0 0 1 2 2v2a2 2 0 0 1-2 2zm0-4h-2v2h2v-2zm-8 12h-2a2 2 0 0 1-2-2v-2a2 2 0 0 1 2-2h2a2 2 0 0 1 2 2v2a2 2 0 0 1-2 2zm0-4h-2v2h2v-2zm0-4h-2a2 2 0 0 1-2-2v-2a2 2 0 0 1 2-2h2a2 2 0 0 1 2 2v2a2 2 0 0 1-2 2zm0-4h-2v2h2v-2zm-8 4h-2a2 2 0 0 1-2-2v-2a2 2 0 0 1 2-2h2a2 2 0 0 1 2 2v2a2 2 0 0 1-2 2zm0-4h-2v2h2v-2z"/>
</svg>
