<svg xmlns="http://www.w3.org/2000/svg" width="28" height="28">
    <path fill="#35083A" fill-rule="evenodd" d="M24 28h-4a4 4 0 0 1-4-4v-4a4 4 0 0 1 4-4h4a4 4 0 0 1 4 4v4a4 4 0 0 1-4 4zm2-8a2 2 0 0 0-2-2h-4a2 2 0 0 0-2 2v4a2 2 0 0 0 2 2h4a2 2 0 0 0 2-2v-4zm-2-8h-4a4 4 0 0 1-4-4V4a4 4 0 0 1 4-4h4a4 4 0 0 1 4 4v4a4 4 0 0 1-4 4zm2-8a2 2 0 0 0-2-2h-4a2 2 0 0 0-2 2v4a2 2 0 0 0 2 2h4a2 2 0 0 0 2-2V4zM8 28H4a4 4 0 0 1-4-4v-4a4 4 0 0 1 4-4h4a4 4 0 0 1 4 4v4a4 4 0 0 1-4 4zm2-8a2 2 0 0 0-2-2H4a2 2 0 0 0-2 2v4a2 2 0 0 0 2 2h4a2 2 0 0 0 2-2v-4zm-2-8H4a4 4 0 0 1-4-4V4a4 4 0 0 1 4-4h4a4 4 0 0 1 4 4v4a4 4 0 0 1-4 4zm2-8a2 2 0 0 0-2-2H4a2 2 0 0 0-2 2v4a2 2 0 0 0 2 2h4a2 2 0 0 0 2-2V4z"/>
</svg>
