<svg xmlns="http://www.w3.org/2000/svg" width="44" height="44">
    <path fill="#939FAC" fill-rule="evenodd" d="M42.533 17.601l-2.117-.531a18.965 18.965 0 0 0-1.912-4.6l1.127-1.877c.346-.671.572-1.502 0-2.074L35.482 4.37a1.23 1.23 0 0 0-.904-.36c-.401 0-.82.152-1.17.36l-1.889 1.133a18.949 18.949 0 0 0-4.585-1.901L26.4 1.467C26.171.748 25.743 0 24.934 0h-5.868c-.809 0-1.283.748-1.466 1.467l-.534 2.135a18.972 18.972 0 0 0-4.586 1.901L10.592 4.37c-.35-.208-.769-.36-1.17-.36a1.23 1.23 0 0 0-.904.36L4.369 8.519c-.572.572-.346 1.403 0 2.074l1.127 1.877a18.886 18.886 0 0 0-1.912 4.6l-2.117.531C.748 17.783 0 18.257 0 19.067v5.867c0 .81.748 1.237 1.467 1.466l2.117.53a18.854 18.854 0 0 0 1.912 4.6l-1.127 1.878c-.378.638-.572 1.501 0 2.074l4.149 4.149c.251.252.555.349.873.349.402 0 .826-.156 1.201-.349l1.888-1.133a18.97 18.97 0 0 0 4.586 1.9l.534 2.135c.183.719.657 1.467 1.466 1.467h5.868c.809 0 1.237-.748 1.466-1.467l.534-2.135a18.946 18.946 0 0 0 4.585-1.9l1.889 1.133c.375.193.8.349 1.201.349.318 0 .62-.097.873-.349l4.149-4.149c.572-.573.378-1.436 0-2.074l-1.127-1.878a18.932 18.932 0 0 0 1.912-4.6l2.117-.53c.719-.229 1.467-.656 1.467-1.466v-5.867c0-.81-.748-1.284-1.467-1.466M42 24.47c-.008.003-.015.007-.023.008l-2.046.512a1.999 1.999 0 0 0-1.447 1.422 16.929 16.929 0 0 1-1.71 4.114 2 2 0 0 0 .015 2.034l1.102 1.835-3.495 3.494-.021-.011-1.827-1.095a2 2 0 0 0-2.029-.017 17.007 17.007 0 0 1-4.102 1.701 1.998 1.998 0 0 0-1.424 1.447l-.516 2.064a1.72 1.72 0 0 1-.007.024h-4.942l-.521-2.089a2 2 0 0 0-1.424-1.446 17.004 17.004 0 0 1-4.104-1.701 1.991 1.991 0 0 0-2.028.017l-1.826 1.095-.022.011-3.492-3.494 1.1-1.836a2 2 0 0 0 .016-2.033 16.886 16.886 0 0 1-1.711-4.114 2.002 2.002 0 0 0-1.447-1.422l-2.046-.512c-.008-.001-.015-.005-.023-.008v-4.942l2.069-.516a2.003 2.003 0 0 0 1.447-1.424 16.886 16.886 0 0 1 1.711-4.114 2 2 0 0 0-.016-2.033L6.122 9.625l-.011-.021L9.606 6.11l1.845 1.108a2.006 2.006 0 0 0 2.03.016 16.914 16.914 0 0 1 4.102-1.7 2.003 2.003 0 0 0 1.424-1.447L19.528 2h4.942a.202.202 0 0 1 .007.023l.516 2.064a2.001 2.001 0 0 0 1.424 1.447c1.431.382 2.809.954 4.102 1.7a1.997 1.997 0 0 0 2.029-.016l1.846-1.108 3.495 3.494-.011.023-1.089 1.813a2 2 0 0 0-.015 2.034 16.929 16.929 0 0 1 1.71 4.114 2 2 0 0 0 1.447 1.424l2.069.516v4.942zM22 12c-5.523 0-10 4.478-10 10 0 5.523 4.477 10 10 10s10-4.477 10-10c0-5.522-4.477-10-10-10m0 18a8 8 0 1 1 0-16 8 8 0 0 1 0 16"/>
</svg>
