<svg 
 xmlns="http://www.w3.org/2000/svg"
 xmlns:xlink="http://www.w3.org/1999/xlink"
 width="12px" height="12px">
<path fill-rule="evenodd"  fill="rgb(52, 73, 94)"
 d="M7.281,6.005 L11.094,9.818 C11.446,10.170 11.446,10.740 11.094,11.091 C10.743,11.443 10.173,11.443 9.822,11.091 L6.008,7.278 L2.169,11.117 C1.815,11.471 1.240,11.471 0.886,11.117 C0.532,10.763 0.532,10.189 0.886,9.834 L4.725,5.995 L0.912,2.182 C0.561,1.830 0.561,1.260 0.912,0.909 C1.264,0.557 1.833,0.557 2.185,0.909 L5.998,4.722 L9.866,0.855 C10.220,0.501 10.794,0.501 11.149,0.855 C11.503,1.209 11.503,1.783 11.149,2.138 L7.281,6.005 Z"/>
</svg>