<svg 
 xmlns="http://www.w3.org/2000/svg"
 xmlns:xlink="http://www.w3.org/1999/xlink"
 width="17px" height="13px">
<path fill-rule="evenodd"  fill="rgb(192, 126, 126)"
 d="M15.000,13.000 L2.000,13.000 C0.674,13.000 0.879,12.101 1.224,11.442 L7.171,1.330 C7.600,0.735 9.470,0.753 9.812,1.330 L15.758,11.442 C16.139,12.046 16.344,13.000 15.000,13.000 ZM9.000,2.000 L8.000,2.000 L2.000,12.000 C3.001,12.015 15.000,12.000 15.000,12.000 L9.000,2.000 ZM9.000,5.802 L9.000,8.166 C9.000,9.245 8.000,9.245 8.000,8.166 L8.000,5.802 C8.000,4.704 9.000,4.704 9.000,5.802 ZM9.000,11.000 L8.000,11.000 L8.000,10.000 L9.000,10.000 L9.000,11.000 Z"/>
</svg>