<svg 
 xmlns="http://www.w3.org/2000/svg"
 xmlns:xlink="http://www.w3.org/1999/xlink"
 width="14px" height="15px">
<path fill-rule="evenodd"  fill="rgb(53, 8, 58)"
 d="M12.234,7.550 L6.984,2.288 L6.984,2.288 L1.734,7.550 C1.334,7.951 0.684,7.951 0.284,7.550 C-0.117,7.149 -0.117,6.498 0.284,6.097 L6.083,0.285 C6.329,0.038 6.666,-0.038 6.984,0.018 C7.302,-0.038 7.639,0.038 7.884,0.285 L13.684,6.097 C14.084,6.498 14.084,7.149 13.684,7.550 C13.283,7.951 12.635,7.951 12.234,7.550 ZM6.083,6.450 C6.329,6.203 6.666,6.127 6.984,6.183 C7.302,6.127 7.639,6.203 7.884,6.450 L13.684,12.262 C14.084,12.664 14.084,13.314 13.684,13.715 C13.283,14.117 12.635,14.117 12.234,13.715 L6.984,8.453 L6.984,8.453 L1.734,13.715 C1.334,14.117 0.684,14.117 0.284,13.715 C-0.117,13.314 -0.117,12.664 0.284,12.262 L6.083,6.450 Z"/>
</svg>