<svg 
 xmlns="http://www.w3.org/2000/svg"
 xmlns:xlink="http://www.w3.org/1999/xlink"
 width="13px" height="8px">
<path fill-rule="evenodd"  fill="rgb(53, 8, 58)"
 d="M7.136,7.626 L11.973,2.807 C12.191,2.590 12.326,2.290 12.326,1.957 C12.326,1.293 11.786,0.755 11.121,0.755 C10.788,0.755 10.486,0.890 10.270,1.108 L6.289,5.074 L6.280,5.074 L2.300,1.108 C2.082,0.890 1.781,0.755 1.448,0.755 C0.782,0.755 0.243,1.293 0.243,1.957 C0.243,2.290 0.378,2.590 0.596,2.807 L5.433,7.626 C5.650,7.845 5.951,7.978 6.284,7.978 C6.617,7.978 6.918,7.845 7.136,7.626 "/>
</svg>