<svg 
 xmlns="http://www.w3.org/2000/svg"
 xmlns:xlink="http://www.w3.org/1999/xlink"
 width="24px" height="24px">
<path fill-rule="evenodd"  fill="rgb(17, 205, 105)"
 d="M14.800,8.500 C14.800,8.887 15.113,9.200 15.500,9.200 C15.887,9.200 16.200,8.887 16.200,8.500 L16.200,3.151 C19.510,4.724 21.800,8.092 21.800,12.000 C21.800,17.412 17.412,21.800 12.000,21.800 C6.588,21.800 2.200,17.412 2.200,12.000 C2.200,7.064 5.853,2.992 10.600,2.311 L10.600,0.897 C5.077,1.587 0.800,6.290 0.800,12.000 C0.800,18.186 5.814,23.200 12.000,23.200 C18.186,23.200 23.200,18.186 23.200,12.000 C23.200,7.781 20.865,4.110 17.418,2.200 L22.500,2.200 C22.887,2.200 23.200,1.887 23.200,1.500 C23.200,1.113 22.887,0.800 22.500,0.800 L15.500,0.800 C15.415,0.800 14.800,0.800 14.800,1.500 L14.800,8.500 Z"/>
</svg>