<svg 
 xmlns="http://www.w3.org/2000/svg"
 xmlns:xlink="http://www.w3.org/1999/xlink"
 width="45px" height="33px">
<path fill-rule="evenodd"  fill="rgb(17, 205, 105)"
 d="M44.000,4.000 L43.000,9.000 C42.963,9.144 42.751,9.033 42.600,9.025 L39.000,9.000 L39.000,20.000 L28.000,20.000 C27.825,20.000 27.000,20.000 27.000,20.000 L27.000,9.000 L24.000,9.025 C23.849,9.033 23.037,9.144 23.000,9.000 L22.000,4.000 L29.000,1.000 C29.018,0.991 29.988,0.989 30.000,1.000 L36.000,1.000 C36.042,1.001 36.961,0.983 37.000,1.000 L44.000,3.000 C44.143,3.060 44.038,3.852 44.000,4.000 ZM30.000,1.825 C30.019,3.452 31.338,4.000 33.000,4.000 C34.662,4.000 35.981,3.627 36.000,2.000 L30.000,1.825 ZM39.000,20.000 C39.175,20.000 39.000,20.171 39.000,20.000 ZM22.000,4.000 C21.857,4.060 21.962,3.852 22.000,4.000 ZM16.000,7.000 L17.000,7.000 L18.000,7.000 C16.839,5.521 16.082,5.000 14.000,5.000 C10.486,5.000 8.000,7.336 8.000,10.701 C8.000,10.869 7.494,11.005 7.318,11.005 C7.143,11.005 7.004,10.869 7.000,10.701 C6.882,6.400 10.134,3.987 14.000,4.000 C16.182,4.007 17.718,4.541 19.000,6.000 C18.992,5.500 19.000,4.000 19.000,4.000 L19.727,4.000 L20.000,4.000 L20.000,6.872 C20.000,7.040 20.000,7.829 20.000,7.829 L16.000,8.000 L16.000,7.000 ZM9.000,13.000 L15.000,13.000 C15.042,13.001 15.961,12.983 16.000,13.000 L23.000,15.000 C23.143,15.060 23.038,15.852 23.000,16.000 L22.000,21.000 C21.963,21.144 21.752,21.033 21.600,21.025 L18.000,21.000 L18.000,32.000 L7.000,32.000 C6.825,32.000 6.000,32.000 6.000,32.000 L6.000,21.000 L3.000,21.025 C2.849,21.033 2.037,21.144 2.000,21.000 L1.000,16.000 L8.000,13.000 C8.018,12.991 8.987,12.989 9.000,13.000 ZM9.000,13.825 C9.019,15.452 10.338,16.000 12.000,16.000 C13.662,16.000 14.981,15.627 15.000,14.000 L9.000,13.825 ZM3.000,20.000 L5.000,20.000 L6.000,20.000 C6.006,20.000 4.994,20.000 5.000,20.000 C5.175,20.000 7.000,19.828 7.000,20.000 L7.000,31.000 L17.000,31.000 L17.000,20.000 L18.000,20.000 L21.000,20.000 L22.000,16.000 L16.000,14.000 C15.897,15.889 13.950,17.000 12.000,17.000 C10.052,17.000 8.106,15.886 8.000,14.000 L2.400,16.825 L3.000,20.000 ZM15.000,19.000 C15.166,19.000 15.957,18.982 16.000,19.000 L16.000,22.000 C16.000,23.135 14.666,23.893 14.173,24.016 C14.149,24.022 14.124,24.025 14.100,24.025 C14.076,24.025 14.052,24.022 14.028,24.016 C13.534,23.893 12.000,23.135 12.000,22.000 L12.000,19.000 C12.000,19.000 12.834,19.000 13.000,19.000 L15.000,19.000 ZM13.000,22.000 C13.000,22.801 13.771,22.919 14.000,23.000 C14.229,22.920 15.000,22.426 15.000,21.625 L15.000,20.000 L13.000,20.000 L13.000,22.000 ZM18.000,32.000 C18.175,32.000 18.000,32.171 18.000,32.000 ZM1.000,16.000 C0.857,16.060 0.962,15.852 1.000,16.000 ZM25.000,27.000 C25.000,27.000 24.175,27.000 24.000,27.000 L23.000,27.000 C24.161,28.545 24.918,29.000 27.000,29.000 C30.514,29.000 33.000,26.515 33.000,23.000 C33.000,22.920 33.000,22.000 33.000,22.000 C33.000,22.000 33.904,22.000 34.000,22.000 C34.175,22.000 33.996,22.824 34.000,23.000 C34.118,27.493 30.866,30.014 27.000,30.000 C24.818,29.992 23.282,29.524 22.000,28.000 C22.008,28.523 22.000,30.000 22.000,30.000 L21.273,30.000 L21.000,30.000 L21.000,27.000 C21.000,26.824 21.000,26.000 21.000,26.000 L25.000,26.000 L25.000,27.000 Z"/>
</svg>