<svg 
 xmlns="http://www.w3.org/2000/svg"
 xmlns:xlink="http://www.w3.org/1999/xlink"
 width="23px" height="23px">
<path fill-rule="evenodd"  fill="rgb(53, 8, 58)"
 d="M11.810,23.010 C5.624,23.010 0.610,17.996 0.610,11.810 C0.610,5.624 5.624,0.610 11.810,0.610 C17.995,0.610 23.010,5.624 23.010,11.810 C23.010,17.996 17.995,23.010 11.810,23.010 ZM11.810,2.010 C6.397,2.010 2.010,6.398 2.010,11.810 C2.010,17.222 6.397,21.610 11.810,21.610 C17.222,21.610 21.609,17.222 21.609,11.810 C21.609,6.398 17.222,2.010 11.810,2.010 ZM12.425,16.385 C12.152,16.658 11.709,16.658 11.435,16.385 C11.161,16.112 11.161,15.668 11.435,15.395 L14.320,12.510 L6.910,12.510 C6.523,12.510 6.210,12.197 6.210,11.810 C6.210,11.423 6.523,11.110 6.910,11.110 L14.320,11.110 L11.435,8.225 C11.161,7.952 11.161,7.508 11.435,7.235 C11.709,6.962 12.152,6.962 12.425,7.235 L16.385,11.195 C16.553,11.363 16.605,11.593 16.566,11.810 C16.605,12.027 16.553,12.257 16.385,12.425 L12.425,16.385 Z"/>
</svg>